<svg width="16" height="16" viewBox="0 0 16 16" fill="none" xmlns="http://www.w3.org/2000/svg">
<path d="M15.3334 6.66667C15.3334 5.92667 14.7334 5.33334 14 5.33334H9.78669L10.4267 2.28667C10.44 2.22001 10.4467 2.14667 10.4467 2.07334C10.4467 1.8 10.3334 1.54667 10.1534 1.36667L9.44669 0.666672L5.06002 5.05334C4.81335 5.3 4.66669 5.63334 4.66669 6V12.6667C4.66669 13.0203 4.80716 13.3594 5.05721 13.6095C5.30726 13.8595 5.6464 14 6.00002 14H12C12.5534 14 13.0267 13.6667 13.2267 13.1867L15.24 8.48667C15.3 8.33334 15.3334 8.17334 15.3334 8V6.66667ZM0.666687 14H3.33335V6H0.666687V14Z" fill="#C2CAD2"/>
</svg>
